<svg version="1" xmlns="http://www.w3.org/2000/svg" width="728" height="728" viewBox="0 0 546.000000 546.000000"><path d="M72.5 1.5c-33 6.2-58.4 28.4-69 60C.2 71.3-.9 87.9 1 99.7c3.2 19.9 16 40.8 32.8 53.6 9.2 7 21.5 12.6 34.5 15.7 8 1.9 13.1 2 199.7 2 122.8 0 193 .4 195.8 1 10.3 2.4 18.3 11.4 19 21.3.8 10.3-3.1 16.5-13.8 22.3-3.4 1.8-10.1 1.9-215 2.4l-211.5.5-5.1 2.7C32 224 27 229 23 235.5c-2.2 3.5-2.5 5.1-2.5 13.5 0 8 .4 10.2 2.3 13.8 3.2 5.9 9.7 12.2 15.7 15.2l5 2.5H257c199.3 0 213.9-.1 220.2-1.7 18.3-4.7 35.9-14.6 46.4-26.1 7.6-8.3 15.8-22 19.1-32.2 3.8-11.6 4.4-32.1 1.4-44.9-3.5-14.5-12-29.9-22-39.4-10.8-10.4-17.9-15.3-29.8-20.5-14.3-6.4-4.4-6.1-217.8-6.7-180.7-.5-194.2-.6-197.1-2.2C68.8 102.1 63 93.5 63 85.5c0-5.7 4-13.5 8.8-17.3 8.4-6.7-8.7-6.2 222.1-6.2h209.6l5-2.4c6.3-2.9 13.8-11.1 15.9-17.3 2-6 2-16.6 0-22.6-2-5.9-9.1-13-16.4-16.6L502.5.5 291 .3C118.9.2 78.2.4 72.5 1.5zM22.3 312.4c-9.2 3-15.9 9.1-20 18.4l-2.4 5.4.3 69.7.3 69.6 2.4 7c1.2 3.8 4.4 11 6.9 16 3.8 7.4 6.5 10.8 15.7 20.1 9.8 9.9 12 11.6 20 15.4 11 5.2 19.9 8.4 28.5 10.2 5.3 1.1 44.7 1.3 215.5 1.3h209l4.7-2.2c6.5-3 13.7-9.9 16.4-15.8 2.9-6.1 3.2-16.7.8-23.8-1.8-5.3-8.7-13.4-14.2-16.9l-3.7-2.3L293 484l-209.5-.5-4.1-2.2c-5.3-2.8-12.1-10.5-13.4-15.2-.6-2.2-1-27.2-1-65.8 0-61.3 0-62.3-2.2-68-2.7-7.4-10.1-15.3-17.1-18.3-6.4-2.8-17.4-3.6-23.4-1.6z"/></svg>